<svg width="1600" height="744" viewBox="0 0 1600 744" fill="none" xmlns="http://www.w3.org/2000/svg">
<rect width="1600" height="744" fill="url(#paint0_linear)"/>
<mask id="mask0" mask-type="alpha" maskUnits="userSpaceOnUse" x="468" y="0" width="1132" height="745">
<path d="M1598 215.347L1427.71 103.949M1598 215.347L1361.68 184.016M1598 215.347L1525.02 103.949M1598 215.347V89.5269M1598 215.347V244.191M1598 215.347L1490.76 234.245M1427.71 103.949L1361.68 184.016M1427.71 103.949L1240.04 82.5645M1427.71 103.949H1525.02M1427.71 103.949V51.7312M1361.68 184.016L1240.04 82.5645M1361.68 184.016L1476.86 280.992M1361.68 184.016L1261.89 234.245M1361.68 184.016L1096.56 178.048M1361.68 184.016L1490.76 234.245M1240.04 82.5645L1096.56 178.048M1240.04 82.5645L1026.06 121.852M1240.04 82.5645L1427.71 51.7312M1240.04 82.5645L1067.76 49.2446M1240.04 82.5645L1240.54 2M1598 244.191L1476.86 280.992M1598 244.191V346.637M1598 244.191L1490.76 234.245M1476.86 280.992L1261.89 234.245M1476.86 280.992L1240.04 293.922M1476.86 280.992L1598 346.637M1476.86 280.992L1361.68 329.231M1476.86 280.992L1447.07 398.358M1476.86 280.992L1490.76 234.245M1261.89 234.245L1096.56 178.048M1096.56 178.048L1240.04 293.922M1096.56 178.048L1026.06 121.852M1096.56 178.048L1100.53 297.403M1096.56 178.048L944.638 215.347M1240.04 293.922L1100.53 297.403M1240.04 293.922L1361.68 329.231M1240.04 293.922L1307.56 386.422M1026.06 121.852L944.638 215.347M1026.06 121.852L1067.76 49.2446M1026.06 121.852L903.927 98.4785M1100.53 297.403L944.638 215.347M1100.53 297.403L1307.56 386.422M1100.53 297.403L1112.45 442.121M1100.53 297.403L944.638 346.637M944.638 215.347L903.927 98.4785M944.638 215.347L800.66 159.648M944.638 215.347V346.637M944.638 215.347L823.498 293.922M944.638 215.347L852.79 224.796M1598 346.637L1447.07 398.358M1598 346.637V427.202M1525.02 103.949L1598 89.5269M1525.02 103.949L1427.71 51.7312M1598 89.5269L1427.71 51.7312M1598 89.5269L1538.92 38.3038M1598 89.5269V2M1361.68 329.231L1447.07 398.358M1361.68 329.231L1307.56 386.422M1447.07 398.358L1307.56 386.422M1447.07 398.358L1598 427.202M1447.07 398.358L1343.31 457.04M1447.07 398.358L1437.64 503.29M1447.07 398.358L1520.05 473.949M1427.71 51.7312L1473.88 2M1427.71 51.7312L1240.54 2M1427.71 51.7312L1538.92 38.3038M1307.56 386.422L1112.45 442.121M1307.56 386.422L1240.04 503.29M1307.56 386.422L1343.31 457.04M1598 427.202V510.75M1598 427.202L1520.05 473.949M1112.45 442.121L944.638 346.637M1112.45 442.121L952.085 463.008M1112.45 442.121L997.264 538.599M1112.45 442.121L1038.97 620.656M1112.45 442.121L1163.58 620.656M1112.45 442.121L1240.04 503.29M1067.76 49.2446L903.927 98.4785M1067.76 49.2446L1240.54 2M1067.76 49.2446L1038.97 2M1067.76 49.2446L884.068 26.8656M903.927 98.4785L800.66 159.648M903.927 98.4785L730.16 63.1694M903.927 98.4785L884.068 26.8656M800.66 159.648L823.498 293.922M800.66 159.648L700.372 259.11M800.66 159.648L852.79 224.796M800.66 159.648L695.407 130.306M800.66 159.648L730.16 63.1694M944.638 346.637L823.498 293.922M944.638 346.637L816.051 432.672M944.638 346.637L952.085 463.008M823.498 293.922L816.051 432.672M823.498 293.922L700.372 259.11M823.498 293.922L695.407 373.492M823.498 293.922L852.79 224.796M816.051 432.672L695.407 373.492M816.051 432.672L952.085 463.008M816.051 432.672L844.846 543.573M816.051 432.672L735.622 569.433M816.051 432.672L695.407 473.949M700.372 259.11L695.407 373.492M700.372 259.11L695.407 130.306M700.372 259.11L600.58 322.269M700.372 259.11L624.411 224.796M695.407 373.492L587.175 432.672M695.407 373.492V473.949M695.407 373.492L600.58 322.269M952.085 463.008L844.846 543.573M952.085 463.008L997.264 538.599M1473.88 2H1240.54M1473.88 2L1538.92 38.3038M1473.88 2H1598M1240.54 2H1038.97M1538.92 38.3038L1598 2M1038.97 2L884.068 26.8656M1038.97 2H871.159M695.407 130.306L730.16 63.1694M695.407 130.306L624.411 224.796M695.407 130.306L546.961 184.016M695.407 130.306L600.58 118.371M730.16 63.1694L884.068 26.8656M730.16 63.1694V2M730.16 63.1694L600.58 118.371M730.16 63.1694L600.58 57.2016M730.16 63.1694L532.563 2M884.068 26.8656L871.159 2M884.068 26.8656L730.16 2M871.159 2H730.16M730.16 2H532.563M532.563 2L471 103.949M532.563 2L537.031 94.5M532.563 2L600.58 57.2016M471 103.949L546.961 184.016M471 103.949L537.031 94.5M546.961 184.016L513.697 268.559L600.58 322.269M546.961 184.016L537.031 94.5M546.961 184.016L600.58 322.269M546.961 184.016L624.411 224.796M546.961 184.016L600.58 118.371M600.58 322.269L587.175 432.672M600.58 322.269L624.411 224.796M587.175 432.672L695.407 473.949M695.407 473.949L735.622 569.433M735.622 569.433L844.846 543.573M735.622 569.433L820.519 615.683M844.846 543.573L928.254 594.298M844.846 543.573L997.264 538.599M844.846 543.573L820.519 615.683M928.254 594.298L997.264 538.599M928.254 594.298L1038.97 620.656M928.254 594.298L944.638 674.863M928.254 594.298L870.663 661.435M928.254 594.298L820.519 615.683M997.264 538.599L1038.97 620.656M1038.97 620.656H1163.58M1038.97 620.656L1136.28 742M1038.97 620.656L1002.73 742M1038.97 620.656L944.638 674.863M1163.58 620.656L1245.01 615.683M1163.58 620.656L1240.04 503.29M1163.58 620.656L1294.16 742M1163.58 620.656L1189.9 705.696M1163.58 620.656L1136.28 742M1245.01 615.683L1326.43 575.898M1245.01 615.683L1240.04 503.29M1245.01 615.683L1319.48 650.992M1245.01 615.683L1294.16 742M1326.43 575.898L1437.64 594.298M1326.43 575.898L1240.04 503.29M1326.43 575.898L1437.64 503.29M1326.43 575.898L1343.31 457.04M1326.43 575.898L1407.35 669.392M1326.43 575.898L1319.48 650.992M1437.64 594.298V503.29M1437.64 594.298L1526.51 683.317M1437.64 594.298L1407.35 669.392M1437.64 594.298L1514.1 617.672M1437.64 594.298L1517.07 547.551M1437.64 503.29L1343.31 457.04M1437.64 503.29L1520.05 473.949M1437.64 503.29L1517.07 547.551M1520.05 473.949L1598 510.75M1520.05 473.949L1517.07 547.551M1598 510.75V594.298M1598 510.75L1517.07 547.551M1598 510.75L1556.3 575.898M537.031 94.5L600.58 57.2016M537.031 94.5L600.58 118.371M600.58 57.2016V118.371M1240.04 503.29L1343.31 457.04M1598 594.298L1526.51 683.317M1598 594.298V742M1598 594.298L1514.1 617.672M1598 594.298L1556.3 575.898M1526.51 683.317L1598 742M1526.51 683.317L1453.03 742M1526.51 683.317L1407.35 669.392M1526.51 683.317L1514.1 617.672M1598 742H1453.03M1453.03 742L1407.35 669.392M1407.35 669.392L1294.16 742M1407.35 669.392L1319.48 650.992M1514.1 617.672L1517.07 547.551M1514.1 617.672L1556.3 575.898M1517.07 547.551L1556.3 575.898M1294.16 742L1319.48 650.992M1294.16 742L1189.9 705.696M1136.28 742L1189.9 705.696M1136.28 742H1002.73M1002.73 742H902.437M1002.73 742L944.638 674.863M820.519 615.683L816.051 705.696M820.519 615.683L870.663 661.435M816.051 705.696L902.437 742M816.051 705.696L870.663 661.435M902.437 742L944.638 674.863M902.437 742L870.663 661.435M944.638 674.863L870.663 661.435" stroke="white" stroke-opacity="0.9" stroke-width="4"/>
</mask>
<g mask="url(#mask0)">
<rect x="333" y="-62" width="1410" height="920" fill="url(#paint1_linear)"/>
</g>
<defs>
<linearGradient id="paint0_linear" x1="77.5" y1="435" x2="1064" y2="-427" gradientUnits="userSpaceOnUse">
<stop offset="0.328834" stop-color="#484745"/>
<stop offset="0.331928" stop-color="white"/>
<stop offset="0.454789" stop-color="white" stop-opacity="0.81"/>
<stop offset="0.458697" stop-color="#484745"/>
<stop offset="0.637716" stop-color="#D31313"/>
<stop offset="1" stop-color="white"/>
</linearGradient>
<linearGradient id="paint1_linear" x1="1657" y1="-18" x2="870" y2="610.5" gradientUnits="userSpaceOnUse">
<stop offset="0.229982" stop-color="#D31313"/>
<stop offset="0.291667" stop-color="#484745"/>
<stop offset="0.564939" stop-color="white"/>
<stop offset="0.791667" stop-color="#484745"/>
<stop offset="0.860262" stop-color="#D31313"/>
</linearGradient>
</defs>
</svg>
